<svg id="Layer_1" data-name="Layer 1" xmlns="http://www.w3.org/2000/svg" viewBox="0 0 292 259"><title>bolson</title><path d="M147,248.34c-26,0-52-.25-78.06.09-19.47.25-30.79-9.4-33.67-28.73-3.14-21,.6-41.12,2.42-61.59,2-22.23,4-44.46,5.79-66.71,1.11-14,2.37-28,2.37-42,0-8.78-1.86-17.62-3.57-26.3-1.52-7.72-.05-10.71,7.68-12.27a16.17,16.17,0,0,1,3.16-.4c25.38,0,50.77-.41,76.13.21,25.52.61,51,2.55,76.52,3.3,9.52.27,19.08-1.19,28.63-1.87a13.23,13.23,0,0,1,3.17-.24c3.06.52,6.08,1.24,9.12,1.88-.89,2.93-1.62,5.92-2.71,8.79a15.67,15.67,0,0,1-2.71,4.3c-10,11.91-10.3,26.05-7.38,39.9,5,23.67,12.24,46.86,17,70.57,4.09,20.38,6.48,41.14,8.67,61.84a82.62,82.62,0,0,1-1.39,25.77c-3.32,15.46-13.94,23.33-29.91,23.43-27.09.17-54.17,0-81.26,0Zm-1.25-93.46C123,152.07,105.38,175.82,106,193.79c.43,12,1.28,15.37,16.15,10.93s29-6.17,43.68-.63a32.05,32.05,0,0,0,9.29,1.93c8.1.48,10.42-1.8,10.42-10.05C185.58,174.13,168.26,152.45,145.75,154.88ZM208.63,41.6c-.89-.67-1.36-1.32-1.86-1.35-14.35-.8-28.71-1.54-43.07-2.3C142.28,36.82,120.87,35,99.44,34.8c-11.78-.12-24.7.25-30,15.67,1.93,0,3.62.07,5.29,0,9.32-.45,18.71-1.94,27.94-1.22,26.7,2.11,53.4,4.68,80.14,1.76C191.81,50,201,47.82,208.63,41.6Zm-52.1,83c.9,8.35,3.73,13.22,9.28,14.71,4.93,1.31,11.42-2.64,14.54-9a31.45,31.45,0,0,0,2.41-6.53c1.47-6.32-2.66-15.26-7.76-17.22-4.51-1.74-11.84,1.23-15,6.94C158.14,116.82,157.64,120.89,156.53,124.62Zm-47.75-4.27c-.51,7.76,2.93,13.32,9.51,17.21,5.68,3.36,11,2.49,13.66-3.46a29.86,29.86,0,0,0,2.23-13.37c-.47-7.47-8.75-14.84-15.06-14.49S108.79,112.14,108.78,120.35Zm93.08,47.34c10,.05,19.85-11.43,18.27-21.08-1.09-6.65-8.34-11.33-14.66-9.46-8.11,2.41-14.95,13.07-13.37,21.46C193.1,163.91,195.35,168.43,201.86,167.69ZM70.14,147.86c1.53,7.29,5.28,14.47,10.3,17.92,6.61,4.53,16,2.07,17.78-4.67,2-7.59-1.53-18.08-8.51-21.61-3.47-1.75-8.79-2.45-12.17-1C74.32,139.84,72.55,144.6,70.14,147.86Z"/></svg>