<svg id="Layer_1" data-name="Layer 1" xmlns="http://www.w3.org/2000/svg" viewBox="0 0 292 259"><title>casa</title><path d="M42,250.05V132c-3,1.61-5,2.54-6.84,3.66-10.74,6.5-20.94,4.82-27.54-4.6-5.77-8.23-3.83-18.39,5.66-25.72,27.94-21.6,56-43,84.11-64.39,11.33-8.65,22.66-17.28,34.11-25.77,10.75-8,18.14-7.78,28.94.47Q196.19,43,231.9,70.32c15.39,11.75,30.91,23.32,46.17,35.22,6.47,5,9.76,11.67,7.56,20.25-2.06,8-7.63,13.2-15.24,13.35-6.55.13-13.17-3.06-20.36-4.94a44.64,44.64,0,0,0-.5,5.28q-.06,48.27,0,96.55c0,10.41-2.59,13.54-12.91,13.79-15.12.38-30.25.31-45.38.16-6.62-.07-9.44-3.51-9.46-10.94-.06-22.8-.64-45.63.18-68.41.64-17.73-11.83-29.69-27.57-31.51-10-1.16-20.33-1.56-29.85,3.78-10,5.57-15.44,13.91-15.59,25.14-.3,23.23-.08,46.46-.1,69.7,0,9.55-2.67,12.28-12,12.3C79,250.08,61.07,250.05,42,250.05ZM145.54,96.2c9.31-.36,17.36-9.17,17-18.63-.33-8.62-9.09-16.76-17.69-16.42-9,.35-17.38,9.37-16.82,18.11S137.48,96.5,145.54,96.2Z"/></svg>