<svg id="Layer_1" data-name="Layer 1" xmlns="http://www.w3.org/2000/svg" viewBox="0 0 292 259"><title>consulta</title><path d="M103.13,56.2c1.3-10.47,4.29-19.36,12.29-25.95,12.53-10.31,47.8-10.24,60.36,0,8.07,6.58,10.75,15.56,12.22,25.69,10.87,0,21.56-.17,32.25,0a73.56,73.56,0,0,1,14.32,1.27c17.68,3.8,27.11,15,27.88,33.14.38,8.74.36,17.51.14,26.26-.11,4.36,1.23,6,5.77,6.57,14.68,2,22.53,14.25,16.27,25.52-2.05,3.69-6.1,6.9-10,8.75s-8.48,2.1-12.79,2.12q-116.22.41-232.44.55a43.79,43.79,0,0,1-7.85-.56C11.14,157.64,5,150.86,4.89,141.44,4.82,132.58,11,125.17,21.26,124c6.49-.73,7.91-3.25,7.55-9.07-.45-7.2-.21-14.45-.11-21.67C29,70.9,42.08,57.18,64.49,56.36,77.15,55.9,89.84,56.23,103.13,56.2ZM66.89,106H66.8c0,1.75,0,3.49,0,5.24.21,13.39-2,11.78,12.41,12,4.67.08,5.88-1.77,5.69-6.23-.3-7.53.15-15.08.13-22.62,0-5.19-4.29-10.41-8.6-10.62-6.31-.31-8.9,3.7-9.49,9.11C66.49,97.23,66.88,101.63,66.89,106Zm47.23-.92c0,2.19,0,4.37,0,6.55,0,12.41.58,12.9,12.89,11.47.44,0,1,.12,1.28-.11,1-.94,2.74-2,2.75-3,.12-9.81.24-19.63-.26-29.42-.27-5.35-4.62-7.07-9.3-6.78s-7.28,3.41-7.38,8.21C114,96.36,114.11,100.72,114.12,105.08Zm63.11,17.07c0-10.19.41-20.66-.38-31-.21-2.66-3.9-6.36-6.7-7.18-4-1.18-8.42.61-9,5.89-.64,6.25-1,12.55-1,18.84-.12,15.27,0,15.28,15.27,14.22A8.67,8.67,0,0,0,177.23,122.15Zm30.26.78c4.73,0,8.68.31,12.52-.19,1.62-.21,4.31-2.16,4.31-3.32,0-9.78-.39-19.58-.93-29.35-.3-5.32-4.33-6.73-8.71-6.48s-7.14,3.22-7.2,7.72C207.33,101.55,207.47,111.8,207.49,122.93ZM166.33,55.71c.56-10.83-1.4-12.88-11.69-12.87-6.35,0-12.69,0-19,0-9.81.06-12.23,3.1-10.19,12.92Z"/><path d="M146.41,171.71l103.09-.21c10.71,0,13.47,2.49,13.24,13-.18,8.06-.16,16.28-1.73,24.12-3.27,16.31-14.9,25.67-31.64,25.91-23.85.35-47.71.22-71.57.28q-45.63.11-91.26.18c-23.84,0-37.29-13.43-37.64-37.41-.07-4.82-.1-9.64,0-14.45C29,175.12,32,172,40,172c23.64-.12,47.28-.12,70.92-.17Z"/></svg>