<svg xmlns="http://www.w3.org/2000/svg" viewBox="0 0 256 256"><defs><style>.cls-1{fill:#fff;}</style></defs><title>Asset 2</title><g id="Layer_2" data-name="Layer 2"><g id="Layer_1-2" data-name="Layer 1"><circle class="cls-1" cx="128" cy="128" r="128"/><path d="M75.93,221.55C84.88,224.28,79.18,208,90,210c2.39.31,6.08,2.13,8.14,1,2.93-6.39-.25-15.54-.31-22.58-1.2-17.85-8.22-34.78-13.15-51.83-6.4-19,13.53-35.78,10.36-54.16-6.26-10.3-17.56-13-26.65-20-7.49-5.08-8.25-14.53-4-22.08,5.12-3.47,15.41,3.13,22,1.09,7.29-2.2,14.42-6.38,21.87-1.69,7.34,3.88,6.13,6.08,14.75,4.79,9.61,2.16,19.38,40.47,1.65,31-6.43-6.12-8-19.39-18.56-20.47-3.17-1.2-7.89,2.3-5.29,5.77,1.53,2.36,5.42,1.67,7.16,3.75,5.93,7,8,19.39,18.92,20.27-3.4.77-5.31,5.35-8.68,6-10.31-.71-12.74,9.55-9.29,17.78,3,7,13.41,6.63,12.79,15.67.09,9.11-5.76,16.88-8.94,25-7.7,17.79.9,36.71.28,54.8-.37,1.75-1,2.23-2.68,1.9-15-3.07-15.25,22.93-4.68,13.79.38-12.51,9.31,0,13.24-8.44,6.33-14.85-3-31.08-1.41-46.53-.07-17.19,17.47-30.79,10.6-48.3-2.41-7.89-14.13-7.28-12.5-16.19.1-1,.25-1.25,1.62-1.22,10.1-.62,10.28-11.55,21.79-4.93,4.46,1.1,3.88-4.07,6.33-5.91,8,13.6-2,31.8,7.64,45.88,6.49,13.6,19,23.62,25.93,37,11.46,13.46-4.63,45.18,19.93,45.86,27.53-7,5.65-30.14,14.38-41.59,4-3.72,12.15-1.39,14.64-6.07,1.16-12.92-28.57-.84-25.25,12.81.07,5.8,2.63,11.44,3.09,17.74-.61,11.52-15,12.75-14,0,6.33-31.72-23.23-48.87-33.79-74.46-5.37-15.38,5.88-40.82-14.43-47.95-4.91,2.3-2.91,9.56-10.29,6.94,17.49-6.49,6.91-37.92-4.38-46-3.89-2.68-7.77-1.56-12-2.74-5.07-3.34-10.44-5.68-16.54-6-8.86-.67-15.74,7-25.15,2.87-5.51-.49-13.62-4.69-17,1.86C52.15,45.55,51.72,59.88,63,68.11c7.64,6.75,17.79,8.34,24,16.76-.58,22.8-20.64,34.71-6.61,64.6a176.73,176.73,0,0,1,10.66,52.35c-7.05.19-14.15,3-16.27,10.18C74.72,212.6,72.87,221.2,75.93,221.55Z"/><path d="M155.48,159.72c-25.71-.21-38.45,25.54-22.27,45.53.34.33.36.69.3.76a10.27,10.27,0,0,0-8.83,10.68c-1,3.67,4.23,7.46,6.79,3.73,1.65-2.31.44-7.27,4.76-6.67,3.84-.32,9.47,3.25,11.51-1.07,1.28-5.17-7.2-8.08-9.09-13.24-10.81-14.1-1.93-32,16.1-31.79C161,168.79,162,159.29,155.48,159.72Z"/></g></g></svg>