<svg id="Layer_1" data-name="Layer 1" xmlns="http://www.w3.org/2000/svg" viewBox="0 0 292 259"><title>gato</title><path d="M183.81,57.88c.51-6.53,2.51-13.05,4.62-19.31,1.5-4.46,5.67-5.77,8.3-1.42,6.45,10.7,15.73,10.09,26.27,9a141.2,141.2,0,0,1,29.42.47c5.54.61,9.26-.27,12.31-4.78a32.48,32.48,0,0,1,3.73-4.07c4.39-4.55,7.16-4.15,9.37,1.89C289,70.29,282.65,117.22,239.25,131a16.91,16.91,0,0,0-10.2,9c-12.71,27.32-18.52,56.53-24.21,85.8-.05.22-.05.46-.08.68-1.41,10.46-5.71,15.91-12.4,15.72s-10.07-4.41-10.61-15.92c-.62-13.24-.14-26.53-.14-41-6,1.15-11.41,2.28-16.87,3.23-26.23,4.56-52.16,4.37-77.53-5C77.8,180.05,77,180.11,76,189.69c-1.21,11.58-1,23.29-1.4,34.95-.08,2.75.41,5.52.24,8.26-.26,4.23-.89,9.29-6,9.55-4.11.22-10.34-.74-12.14-3.48a61,61,0,0,1-8.88-21.24c-5-25.63-8-51.74-14.08-77.08-3.32-13.77-11.49-26.37-17.42-39.51C5.85,77.83,6.14,54.54,18.09,32A44.94,44.94,0,0,1,86.15,18a31,31,0,0,1,9.38,12.4c1.2,3.08,0,8.35-2.09,11.14C90.53,45.4,85.5,46,81,43.1a36.43,36.43,0,0,1-6-4.58C63.41,27.19,48.44,31,39.52,43.35c-10.21,14.16-6.84,44.9,5.89,56.45,1.75,1.59,4.39,2.33,6.74,3.1,23.45,7.73,47.22,14.17,72.21,12,13-1.15,25.86-3.54,38.66-6a18.31,18.31,0,0,1,3.32-.33A17.14,17.14,0,0,0,183.2,91.67Z"/></svg>