<svg id="Layer_1" data-name="Layer 1" xmlns="http://www.w3.org/2000/svg" viewBox="0 0 292 259"><title>huella</title><path d="M193.88,241.11c-7.18-.88-16.22-3-25.24-2.9-22.43.24-44.89.94-67.26,2.52-13.44,1-24.24-1.25-31.12-14.13-7.42-13.89-4.61-26.21,4.95-38.54A478.11,478.11,0,0,0,104,146.23c23.06-37.39,62-37,84.19.31,9,15.16,19.64,29.45,30.24,43.6,8.8,11.74,10.43,23.53,3.92,36.65C216.79,237.92,207.26,241.26,193.88,241.11Z"/><path d="M124.68,70.09c.21,16-7.32,28.51-17.77,32.05-10.77,3.64-23.17-1.71-31.54-13.64C61.83,69.22,62,41.59,75.78,22.32c7-9.77,16.1-10.85,25.16-1.85C115.27,34.7,122.56,52.47,124.68,70.09Z"/><path d="M220.44,60.61C221,79,219,83.41,212.06,94c-5.89,9-16.31,10.53-26.8,7.94-9.79-2.43-13.76-9.89-16-18.8-4.7-18.34,8.34-53.43,23.83-64.05,9.54-6.54,20.2-4.55,24.62,6.08C222,35.6,221,45,220.44,60.61Z"/><path d="M284,122.16c-1.66,19.59-5.16,37-22.45,47.45-9.68,5.87-20.05,8.18-30.2,1.22-8.3-5.69-13.07-20.89-7.7-31.29,7.17-13.91,15.45-27.71,25.67-39.45,12.93-14.85,26.73-10.63,31.87,8.19C282.54,113.22,283.24,118.33,284,122.16Z"/><path d="M70.37,152.21c-2.83,4.86-5.7,14.11-11.94,19.39-7.91,6.69-18.13,3.55-26.84-1.5C9.44,157.24.46,119.48,14.52,98.24c5.54-8.35,14.16-8.82,20.9-3.89C53.54,107.6,66.28,124.92,70.37,152.21Z"/></svg>