<svg id="Layer_1" data-name="Layer 1" xmlns="http://www.w3.org/2000/svg" viewBox="0 0 292 259"><title>medicamentos</title><path d="M134.23,63.31c0,4.83.26,9-.08,13.15s1,6.36,4.81,7.82c16.31,6.15,25.55,19.24,32.87,34.1a21.41,21.41,0,0,1,2,6.51c.5,3.6-1,6-5,6-27.26-.26-54.51-.58-81.77-.78-2.79,0-5.58.67-8.67,1.08v68.51h6.28q35.49,0,71,0c6.4,0,7,1.37,5.43,7.66a107.53,107.53,0,0,0-2.8,17.84c-.37,5-2,7.68-7.45,7.66-29.77-.1-59.54.11-89.31-.14-9.78-.09-15-5-17-14.6a36.46,36.46,0,0,1-.76-7.38c0-22.14-.23-44.29,0-66.43.23-19.41,7.24-36.24,21.6-49.39,4.79-4.39,10.85-7.68,16.81-10.39,3.63-1.65,4.88-3.63,5-7.16.68-14,.71-14,14.66-14Z"/><path d="M110.73,8.31c11,0,22.1-.06,33.16,0,7,0,9.71,2.71,9.79,9.63.09,6.67,0,13.35,0,20,0,7.08-2.25,9.78-9.37,10.18s-14.48.23-21.72.24q-22.31,0-44.6,0c-7.64,0-10.16-2.63-10.21-10.38,0-6.86-.11-13.73,0-20.59.11-6.24,2.9-9,9.17-9.09C88.24,8.23,99.48,8.31,110.73,8.31Z"/><path d="M195.52,195.16c12.53-.49,26.8,10.48,27.5,27.46.59,14.4-14.06,28.6-28.23,28.38-14.8-.23-27.49-13.2-27.54-28.16C167.19,207.66,180,195.09,195.52,195.16Zm14.33,28c1.58-10.4-8.18-16-15.58-16.43-6.53-.34-15.39,8.57-15.33,14.56.1,9.4,7.32,17.28,15.91,17.37C203.76,238.73,209.85,232.44,209.85,223.13Z"/><path d="M233.88,222.38c-2-5.79-3.38-10.47-5.33-14.88-4.54-10.31-12.38-16.9-23.23-20.14-2.73-.82-5.08-2.88-7.61-4.36,2.15-2.26,3.95-5.08,6.52-6.67,11.53-7.13,25.87-4.38,35,6.36a26.65,26.65,0,0,1,.25,34.7C238.23,218.94,236.48,220.11,233.88,222.38Z"/><path d="M127.46,148.14c6.67,0,13.34-.11,20,.06,2.83.07,5.95.1,8.36,1.32,2.12,1.07,4.89,3.88,4.74,5.7-.19,2.3-3,6.23-4.76,6.28-18.78.48-37.57.48-56.35.22-3.43,0-5.68-2.66-5.68-6.66s2.69-5.6,5.77-5.85c9.27-.77,18.59-1.07,27.89-1.56Z"/><path d="M116.53,187.52c-6.11-.49-11.88-.5-17.41-1.65-2.07-.43-4.47-3.27-5.13-5.49-1.09-3.65,1.85-6,5.09-6.1,11.37-.22,22.76-.16,34.11.4,1.67.08,4.54,3.5,4.42,5.2-.16,2.12-2.54,5.37-4.49,5.82C127.62,187,121.84,187,116.53,187.52Z"/></svg>