<svg id="Layer_1" data-name="Layer 1" xmlns="http://www.w3.org/2000/svg" viewBox="0 0 292 259"><title>mensual</title><path d="M125,190.38A55.27,55.27,0,0,0,151.08,200c32.54,3.9,59-10.23,84.15-28.42,3.6-2.6,7.13-5.35,11-7.57,2.84-1.66,6.16-3.71,9.17-3.56,4.32.21,9.88,1.1,12.33,3.93,1.54,1.77-.52,8.6-2.93,11.54a230.36,230.36,0,0,1-72.71,58.53c-9,4.69-18.64,8.25-28.19,11.81-15.24,5.67-30.35.75-45.32-1.69-19.85-3.22-39.69-4.48-59.65-2-4.74.59-9.33,2.68-13.91,4.3-5.1,1.81-8.56.77-10.42-4.71-3.71-10.91-8-21.64-11.19-32.71-.92-3.22-.07-8.84,2.18-10.77,16-13.65,31.72-28.27,53.07-33.31a265.42,265.42,0,0,1,31.47-5.21c16.73-1.86,33.52-3.34,50.32-4.26,4.17-.23,10.31,1,12.31,3.82,3.37,4.75.56,10.69-4,14a68.7,68.7,0,0,1-16.33,8.75C144.07,185.52,135.39,187.46,125,190.38Z"/><path d="M204.09,136.26c-4-.49-9.09-1.67-14.14-1.62-12.56.14-25.14.53-37.67,1.41-7.52.53-13.57-.7-17.42-7.91-3.94-7.38-2.73-14,2-20.53,5.92-8.24,11.82-16.52,17.26-25.07,13-20.34,34.44-19.92,46.78.76a283.27,283.27,0,0,0,16.93,24.42c4.93,6.57,5.84,13.18,2.2,20.53C216.92,134.48,211.58,136.35,204.09,136.26Z"/><path d="M165.33,40.49c.12,8.93-4.09,16-10,17.95-6,2-13-1-17.66-7.64A32.79,32.79,0,0,1,138,13.74c3.91-5.47,9-6.07,14.09-1A46.47,46.47,0,0,1,165.33,40.49Z"/><path d="M219.44,35.19C220,45,218.15,48,214.27,53.87c-3.3,5-9.14,5.9-15,4.45-5.49-1.36-7.71-5.54-9-10.53-2.63-10.27,4.67-29.92,13.34-35.87,5.34-3.66,11.31-2.55,13.79,3.41S219,23,219.44,35.19Z"/><path d="M254.55,69.65c-.93,11-2.88,20.7-12.57,26.57-5.42,3.29-11.23,4.59-16.91.69-4.65-3.19-7.32-11.7-4.31-17.52a111.05,111.05,0,0,1,14.37-22.1c7.24-8.31,15-5.95,17.85,4.59C253.74,64.65,254.13,67.51,254.55,69.65Z"/><path d="M134.92,86.48c-1.58,2.72-3.19,7.9-6.69,10.86-4.43,3.75-10.15,2-15-.84-12.4-7.2-17.43-28.35-9.56-40.24,3.1-4.68,7.93-4.94,11.71-2.18C125.5,61.5,132.63,71.2,134.92,86.48Z"/></svg>