<svg id="Layer_1" data-name="Layer 1" xmlns="http://www.w3.org/2000/svg" viewBox="0 0 292 259"><title>perro</title><path d="M218.55,145.8q.21,48.42,0,96.82c0,5.9-2.13,10.57-8.92,11.77-7.63,1.34-14.49-.8-16.38-7.2-3.45-11.67-6.7-23.57-8.26-35.61-2.4-18.57-1.76-18.68-19.9-21.37Q130.19,185,95.23,179.93c-7.4-1.08-8.94.3-10.46,7.8-3.63,18-7.42,35.92-11.2,53.87A21.37,21.37,0,0,1,72,246.09c-2.8,6.1-8.17,8.93-14.29,7.87-6.79-1.18-7.87-6.37-7.93-11.74-.2-18.4-.08-36.81-.08-55.22h-.11c0-17.95.16-35.91-.18-53.86a10.67,10.67,0,0,0-4.06-7.28c-11.05-7.93-22.43-15.38-33.67-23C10,101.67,7.67,100.61,7,99,5.67,95.42,5.2,91.52,4.36,87.76c3.11-.65,6.41-2.31,9.29-1.76a172.1,172.1,0,0,1,23.63,6.18c11.37,3.92,23,4.62,34.84,4.47,22.26-.28,44.54-.55,66.78.19,0,0,12.1,2.16,18.1-5.84s5.75-18,5.75-18c-.66-9.95-.21-20-.21-30h0c0-9.31-.43-18.66.2-27.93.28-4.08,2.74-8,4.2-12,3.3,2.4,6.84,4.53,9.83,7.26a34.16,34.16,0,0,1,5.76,7.54c4.69,7.79,12.32,9.64,20.49,11.39,24.11,5.17,48.29,10.19,72.09,16.57,13,3.48,15.2,11.71,7.47,22.8A180.89,180.89,0,0,1,265.67,89c-8.29,8.81-19.87,9.12-30.85,10.63a72.12,72.12,0,0,1-8.8.69c-4.72.07-9.66-.15-8.31,7.08Z"/></svg>