<svg id="Layer_1" data-name="Layer 1" xmlns="http://www.w3.org/2000/svg" viewBox="0 0 292 259"><title>racion</title><path d="M7,165.71c5.59-9.75,11.48-19.33,16.67-29.28a127.77,127.77,0,0,0,9.45-22.05c3-10,8-18.39,17.4-22.6C63,86.23,70.82,76.13,79.28,66.31c17.46-20.25,39.49-32.91,66.23-34.55,17.82-1.1,34.9,4.95,49,15.94,11.65,9.1,21.46,20.54,32.21,30.82a113.82,113.82,0,0,0,10.49,8.72c5.79,4.31,12.15,7.93,17.47,12.73,3,2.69,5.64,7,6.23,10.85,2.11,13.9,9.77,24.82,17.68,35.64,12.79,17.51,11.05,30.72-6,44.66-19,15.56-41.49,23.22-64.74,29.17-21.4,5.48-43.26,7.42-65.26,6.85-36.83-.94-72.37-7.68-105-25.75C23.32,193.53,11.6,183.41,7,167Zm39.72-49.15c21.54,12.18,44.81,18.45,68.8,20.6,19.22,1.73,38.75,1.1,58.08.2,24.42-1.13,47.94-6.73,69.88-18.08,2.93-1.52,5.82-3.1,4-6.41-.71-1.29-4.72-1.58-6.94-1.07-10.08,2.3-10.77,2.2-15.79-6.73a146.76,146.76,0,0,0-31.2-38.64c-24.8-21.78-59.48-24-85.8-4.48-16.17,12-28.28,27.51-38.07,45-4.07,7.27-5.32,7.84-13.3,4.81C51.54,109.89,48.1,110,46.72,116.56Z"/><path d="M185.11,91.17c4.74.22,7.73,2.74,8,7.79s-3.62,8.79-8.78,8.79-8.12-3.13-8-8.48C176.45,93.72,179.65,91.4,185.11,91.17Z"/><path d="M116.09,99.69c-.1,6-3,7.9-7.42,7.86s-7.24-2.08-7.08-7,2.65-7.37,7.66-7.1C113.89,93.71,116.23,96.07,116.09,99.69Z"/><path d="M157.41,67.92c1.37,2.06,3.52,4,3.93,6.23.71,3.9-1.49,6.7-5.64,6.73-3.83,0-6.14-2.49-5.38-6.19.51-2.45,2.62-4.57,4-6.83Z"/><path d="M137.17,109.67c-1.7.87-3.57,2.64-5,2.35-1.73-.33-3.11-2.46-4.64-3.81,1.69-1.41,3.22-3.56,5.13-4,1.29-.28,3.11,1.9,4.69,3Z"/></svg>