<?xml version="1.0" encoding="utf-8"?>
<!-- Generator: Adobe Illustrator 24.0.2, SVG Export Plug-In . SVG Version: 6.00 Build 0)  -->
<svg version="1.1" id="Layer_1" xmlns="http://www.w3.org/2000/svg" xmlns:xlink="http://www.w3.org/1999/xlink" x="0px" y="0px"
	 viewBox="0 0 292 259" style="enable-background:new 0 0 292 259;" xml:space="preserve">
<style type="text/css">
	.st0{fill:none;stroke:#FF0000;stroke-width:7;stroke-linecap:round;stroke-linejoin:round;stroke-miterlimit:10;}
	.st1{fill:#FF0000;}
	.st2{stroke:#000000;stroke-width:3;stroke-miterlimit:10;}
</style>
<g>
	<path d="M268.18,175.14c-4.57-5.97-11.65-8.17-18.96-5.9c-8.68,2.7-17.36,5.37-26.05,8.04l-24.71,7.62
		c-0.39-4.3-2.24-8.28-5.34-11.37c-3.78-3.77-9.01-5.78-14.72-5.64c-8.98,0.21-18.14,0.13-26.99,0.06l-5.14-0.04
		c-1.38-0.01-2.73-0.25-4.02-0.71c-5.78-2.07-11.55-4.16-17.32-6.26c-6.81-2.47-13.62-4.95-20.44-7.38
		c-2.43-0.86-5.3-1.75-8.21-1.81c-6.98-0.14-14.06-0.12-20.9-0.09c-2.55,0.01-5.11,0.02-7.66,0.02l-0.27,0c-0.02,0-0.04,0-0.07,0
		c-1.55-5.6-5.06-8.21-11-8.22c-15.26-0.01-30.52-0.01-45.78,0c-0.55,0-1.11,0.04-1.66,0.08l-2.74,0.31l0.01,12.37h48.77v69
		l-27.13,0c-5.81,0-11.62-0.01-17.43,0.05c-3.6,0.04-4.24,1.92-4.3,3.03c-0.15,2.75-0.14,3.31-0.12,4.25
		c0.01,0.34,0.02,0.74,0.02,1.35c0,1.22,0,1.44,0.24,1.92l0.11,0.19c0.7,1.11,1.68,1.74,2.69,1.74l10.4,0.01
		c12.71,0.01,25.43,0.03,38.14-0.01c3.89-0.01,7.08-2.02,8.96-5.66c0.41-0.79,0.66-1.59,0.89-2.37c7.43-0.11,14.47-0.05,21.5,2.61
		c20.21,7.66,40.28,14.58,58.96,20.91c2.58,0.88,5.13,1.31,7.6,1.31c3.2,0,6.26-0.73,9.06-2.2l17.82-9.28
		c26.56-13.84,53.12-27.67,79.7-41.48c4.91-2.55,8.38-6.91,9.5-11.96C272.71,184.63,271.5,179.48,268.18,175.14z M224.75,206.81
		l-36.97,19.2c-9,4.66-18.3,9.49-27.4,14.32c-3.01,1.59-6.12,1.79-9.54,0.61c-13.98-4.85-28.17-9.86-41.89-14.72l-14.23-5.03
		c-1.02-0.36-2.04-0.73-3.05-1.09c-2.27-0.82-4.62-1.66-6.97-2.43c-1.21-0.39-2.6-0.59-4.26-0.61c-2.22-0.02-4.45-0.03-6.71-0.03
		c-1.3,0-2.62,0-3.96,0l-2,0l0-12.68c0-13.29,0.01-26.59-0.05-39.88c0-0.09,0-0.17,0-0.24c0.06,0,0.12,0,0.19,0
		c8.97,0.1,17.94,0,26.92,0.1c1.57,0.02,3.13,0.3,4.63,0.83c7.55,2.7,15.08,5.43,22.61,8.17c5.93,2.15,11.85,4.3,17.78,6.44
		c1.42,0.51,2.9,0.77,4.41,0.78c6.72,0.03,13.43,0.03,20.15,0.03c5.06,0,10.12,0,15.18,0.01c3.13,0.01,5.42,1.74,6.14,4.63
		c0.63,2.53-0.62,5.35-2.84,6.41c-1.11,0.53-2.62,0.84-4.14,0.85c-8.23,0.05-16.46,0.04-24.69,0.05c-6.26,0-12.52,0-18.78,0.02
		c-9.86,0.03-17.58,6.88-18.77,16.65c-0.12,1,0.19,2,0.86,2.75c0.67,0.75,1.63,1.18,2.63,1.18h3.5c2.63,0,4.99-1.59,6.01-4.06
		c1.24-3.01,2.5-3.95,7.9-3.95l11.86-0.01c9.85-0.01,19.69-0.03,29.54,0.02c5.44,0,9.93-1.56,13.73-4.87
		c0.47-0.4,1.43-0.71,2.07-0.91c12.15-3.81,24.3-7.62,36.45-11.42l21.64-6.77c2.66-0.83,5.17,0.37,6.27,2.99
		c1.02,2.43,0.11,4.82-2.33,6.09C246.02,195.77,235.38,201.29,224.75,206.81z"/>
	<path d="M92.72,92.77c14.57,19.52,33.44,37.04,59.4,55.15c1.1,0.76,2.2,1.15,3.29,1.15c1.15,0,2.29-0.42,3.42-1.25
		c1.55-1.14,3.12-2.25,4.7-3.37c2.09-1.47,4.25-3,6.34-4.59c23.04-17.59,38.74-33.25,50.88-50.78c8.89-12.83,13.67-24.5,15.04-36.72
		c1.56-13.98-3.52-27.49-13.95-37.07c-10.4-9.56-24.25-13.48-38-10.75c-11.55,2.29-21.1,7.98-28.42,16.93
		C143.54,7.41,128.2,1.55,111.01,4.52c-11.89,2.05-22.09,8.6-28.71,18.45c-6.85,10.19-9.13,22.63-6.41,35.02
		C78.44,69.64,83.95,81.02,92.72,92.77z M98.51,25.77c5.55-5.24,12.72-7.89,20.04-7.89c6.65,0,13.42,2.19,19.2,6.59
		c4.61,3.52,7.62,7.01,9.47,11c0.2,0.44,0.37,0.89,0.53,1.35c1.13,3.25,4.2,5.43,7.65,5.43c3.42,0,6.49-2.15,7.63-5.36
		c1.64-4.62,4.99-8.66,10.53-12.71c6.11-4.47,12.69-6.52,20.1-6.29c13.23,0.42,24.56,10.03,27.57,23.36
		c1.63,7.22,0.59,14.84-3.26,23.98c-6.02,14.29-16,25.87-24.03,34.36c-10.87,11.5-23.45,22.41-38.45,33.33
		c-0.03,0.02-0.06,0.05-0.09,0.06c-0.05-0.03-0.1-0.07-0.17-0.12c-21.43-15.83-37.07-30.41-49.21-45.9
		C97.94,76.69,93,67.58,90.46,58.31C86.81,44.97,89.44,34.33,98.51,25.77z"/>
</g>
</svg>
